<svg width="24" height="24" viewBox="0 0 24 24" fill="#7CC1E4" xmlns="http://www.w3.org/2000/svg">
<path d="M21.97 12.7296C21.72 12.5096 21.41 12.3296 21.05 12.1896L20 11.7996C19.9604 10.2351 19.4627 8.71662 18.5687 7.43212C17.6747 6.14762 16.4236 5.15354 14.9702 4.573C13.5169 3.99245 11.9252 3.85093 10.3922 4.16596C8.85924 4.48099 7.45234 5.23873 6.34572 6.34535C5.23909 7.45197 4.48135 8.85887 4.16633 10.3918C3.8513 11.9248 3.99282 13.5165 4.57336 14.9698C5.15391 16.4232 6.14798 17.6743 7.43249 18.5684C8.71699 19.4624 10.2355 19.96 11.8 19.9996L12.2 21.0596C12.32 21.4196 12.5 21.7296 12.73 21.9796C10.6958 22.1273 8.6651 21.6493 6.91025 20.61C5.15539 19.5706 3.7603 18.0195 2.91208 16.1647C2.06385 14.3099 1.80305 12.2401 2.16466 10.2329C2.52627 8.22566 3.49298 6.37698 4.93516 4.9348C6.37734 3.49262 8.22602 2.5259 10.2333 2.16429C12.2405 1.80269 14.3103 2.06348 16.1651 2.91171C18.0199 3.75994 19.571 5.15503 20.6104 6.90988C21.6497 8.66474 22.1276 10.6954 21.98 12.7296H21.97ZM11.02 17.9196C9.93192 17.7394 8.91458 17.2627 8.07975 16.5419C7.24492 15.8212 6.6249 14.8843 6.2878 13.8341C5.95071 12.784 5.9096 11.6613 6.16897 10.5893C6.42835 9.51731 6.97818 8.53757 7.75805 7.75769C8.53793 6.97781 9.51768 6.42798 10.5897 6.16861C11.6616 5.90923 12.7844 5.95035 13.8345 6.28744C14.8847 6.62453 15.8216 7.24455 16.5423 8.07938C17.263 8.91422 17.7397 9.93156 17.92 11.0196L15.53 10.1196C15.2363 9.56761 14.8174 9.09211 14.3067 8.73131C13.796 8.37051 13.2079 8.13446 12.5894 8.0421C11.971 7.94973 11.3396 8.00364 10.7457 8.19948C10.1519 8.39532 9.61229 8.72765 9.17016 9.16979C8.72802 9.61193 8.39569 10.1516 8.19985 10.7454C8.004 11.3392 7.9501 11.9706 8.04246 12.5891C8.13482 13.2075 8.37088 13.7956 8.73168 14.3063C9.09248 14.817 9.56798 15.236 10.12 15.5296L11.02 17.9196Z" fill="#7CC1E4"/>
<path d="M17.96 16.5409L21.71 20.2909C21.8983 20.4792 22.0041 20.7346 22.0041 21.0009C22.0041 21.2672 21.8983 21.5226 21.71 21.7109C21.5217 21.8992 21.2663 22.005 21 22.005C20.7337 22.005 20.4783 21.8992 20.29 21.7109L16.54 17.9609L15.97 20.2409C15.9167 20.4455 15.8 20.628 15.6365 20.7622C15.473 20.8963 15.2711 20.9751 15.06 20.9874C14.8489 20.9996 14.6393 20.9446 14.4614 20.8302C14.2836 20.7158 14.1465 20.548 14.07 20.3509L11.07 12.3509C11.0029 12.1717 10.9885 11.9771 11.0287 11.7901C11.0689 11.603 11.1618 11.4314 11.2966 11.2957C11.4313 11.1599 11.6022 11.0656 11.7889 11.0239C11.9756 10.9823 12.1703 10.9952 12.35 11.0609L20.35 14.0609C20.5512 14.1341 20.7237 14.27 20.8419 14.4486C20.9601 14.6272 21.0179 14.839 21.0067 15.0529C20.9955 15.2667 20.9159 15.4714 20.7797 15.6366C20.6435 15.8019 20.4578 15.9191 20.25 15.9709L17.95 16.5409H17.96Z" fill="#7CC1E4"/>
</svg>

